<svg width="95" height="85" viewBox="0 0 95 85" fill="none" xmlns="http://www.w3.org/2000/svg">
<path d="M46.999 85C70.7099 85 90 65.9342 90 42.5C90 19.0658 70.7099 0 46.999 0C23.2891 0 4 19.0658 4 42.5C4 65.9342 23.2891 85 46.999 85ZM22.9463 72.0385C24.1763 66.3365 34.1536 56.7803 46.999 56.7803C59.8444 56.7803 69.8237 66.3365 71.0517 72.0385C64.4656 77.2877 56.0992 80.4404 46.999 80.4404C37.8988 80.4404 29.5323 77.2877 22.9463 72.0385ZM46.999 4.55962C68.1657 4.55962 85.3877 21.5794 85.3877 42.5C85.3877 52.613 81.3559 61.8066 74.8069 68.6153C72.385 62.7954 65.7277 56.9021 57.4345 54.0279C63.7479 50.4412 68.0123 43.7127 68.0123 36.0143C68.0123 24.5627 58.5863 15.2463 46.999 15.2463C35.4127 15.2463 25.9877 24.5627 25.9877 36.0143C25.9877 43.7127 30.2521 50.4412 36.5645 54.0279C28.2713 56.9021 21.613 62.7954 19.1921 68.6153C12.6441 61.8056 8.61226 52.613 8.61226 42.5C8.61226 21.5794 25.8333 4.55962 46.999 4.55962ZM46.999 52.2217C37.9559 52.2217 30.601 44.9512 30.601 36.0143C30.601 27.0764 37.9569 19.8049 46.999 19.8049C56.0421 19.8049 63.3991 27.0764 63.3991 36.0143C63.3991 44.9512 56.0431 52.2217 46.999 52.2217Z" fill="black"/>
</svg>
